# xmcd
# 
# Track frame offsets:
#     150
#     31930
#     66527
#     72685
#     92190
# 
# Disc length: 2038
# 
# Revision: 1
# Processed by: cddbd v1.5.2PL0 Copyright (c) Steve Scherf et al.
# Submitted via: BonkEnc v1.0.8
# 
DISCID=4a07f405
DTITLE=Frank Zappa - Orchestral Favorites
DYEAR=1979
DGENRE=
TTITLE0=Strictly Genteel
TTITLE1=Pedro's Dowry
TTITLE2=Naval Aviation In Art?
TTITLE3=Duke of Prunes
TTITLE4=Bogus Pomp
EXTD=
EXTT0=Segue
EXTT1=Segue
EXTT2=Segue
EXTT3=
EXTT4=
PLAYORDER=
